<svg width="100%" height="100%" viewBox="0 0 4000 4000" version="1.1" xmlns="http://www.w3.org/2000/svg" xmlns:xlink="http://www.w3.org/1999/xlink" xml:space="preserve" xmlns:serif="http://www.serif.com/" style="fill-rule:evenodd;clip-rule:evenodd;stroke-linejoin:round;stroke-miterlimit:2;">
 <g transform="matrix(2,0,0,2,0,0)">
 <rect x="0" y="0" width="2000" height="2000" style="fill:rgb(0,67,255);"/>
 </g>
 <g transform="matrix(2,0,0,2,1483.975,1889.5068)">
 <path d="M0,121.085L0,2.613L26.787,2.613L26.787,30.053L23.738,25.48C25.916,16.915 30.271,10.528 36.805,6.315C43.338,2.106 51.032,0 59.889,0C69.614,0 78.183,2.542 85.587,7.622C92.992,12.706 97.783,19.382 99.96,27.658L91.903,28.311C95.53,18.875 100.975,11.797 108.236,7.078C115.495,2.361 123.841,0 133.281,0C141.699,0 149.213,1.888 155.821,5.662C162.426,9.439 167.615,14.7 171.392,21.451C175.166,28.202 177.055,36.008 177.055,44.862L177.055,121.085L148.525,121.085L148.525,51.613C148.525,46.387 147.58,41.888 145.694,38.111C143.806,34.337 141.192,31.397 137.854,29.291C134.513,27.188 130.45,26.133 125.659,26.133C121.157,26.133 117.165,27.188 113.681,29.291C110.196,31.397 107.508,34.337 105.623,38.111C103.734,41.888 102.792,46.387 102.792,51.613L102.792,121.085L74.263,121.085L74.263,51.613C74.263,46.387 73.317,41.888 71.432,38.111C69.543,34.337 66.892,31.397 63.482,29.291C60.07,27.188 56.041,26.133 51.396,26.133C46.894,26.133 42.902,27.188 39.418,29.291C35.934,31.397 33.245,34.337 31.36,38.111C29.472,41.888 28.529,46.387 28.529,51.613L28.529,121.085L0,121.085Z" style="fill:white;fill-rule:nonzero;"/>
 </g>
 <g transform="matrix(2,0,0,2,1958.2972,1889.5054)">
 <path d="M0,123.699C-8.276,123.699 -15.462,122.318 -21.56,119.561C-27.658,116.805 -32.378,112.847 -35.716,107.692C-39.058,102.54 -40.725,96.552 -40.725,89.725C-40.725,83.192 -39.275,77.349 -36.369,72.194C-33.467,67.042 -28.965,62.721 -22.867,59.236C-16.769,55.752 -9.075,53.285 0.218,51.832L38.982,45.516L38.982,67.294L5.662,72.956C0,73.974 -4.213,75.787 -6.969,78.401C-9.729,81.014 -11.107,84.428 -11.107,88.636C-11.107,92.703 -9.548,95.932 -6.425,98.328C-3.304,100.723 0.579,101.921 5.227,101.921C11.178,101.921 16.442,100.652 21.016,98.11C25.589,95.572 29.145,92.05 31.687,87.548C34.225,83.049 35.498,78.112 35.498,72.739L35.498,42.25C35.498,37.169 33.5,32.923 29.509,29.51C25.514,26.1 20.253,24.392 13.72,24.392C7.622,24.392 2.212,26.025 -2.504,29.292C-7.224,32.558 -10.671,36.88 -12.849,42.25L-36.151,30.925C-33.831,24.684 -30.163,19.274 -25.154,14.7C-20.145,10.127 -14.23,6.534 -7.405,3.92C-0.582,1.307 6.823,0 14.809,0C24.534,0 33.103,1.78 40.507,5.336C47.912,8.895 53.683,13.829 57.82,20.145C61.958,26.461 64.027,33.831 64.027,42.25L64.027,121.086L37.022,121.086L37.022,100.832L43.12,100.397C40.071,105.48 36.44,109.727 32.231,113.137C28.019,116.55 23.228,119.163 17.858,120.977C12.485,122.79 6.533,123.699 0,123.699" style="fill:white;fill-rule:nonzero;"/>
 </g>
 <g transform="matrix(2,0,0,2,2139.0484,1892.1188)">
 <path d="M0,119.779L0,1.307L26.787,1.307L26.787,27.658L24.609,23.738C27.365,14.884 31.687,8.712 37.567,5.227C43.447,1.742 50.525,0 58.8,0L65.769,0L65.769,25.263L55.534,25.263C47.401,25.263 40.868,27.767 35.934,32.776C30.996,37.785 28.529,44.791 28.529,53.792L28.529,119.779L0,119.779Z" style="fill:white;fill-rule:nonzero;"/>
 </g>
 <g transform="matrix(2,0,0,2,2416.4956,1840.724)">
 <path d="M0,146.783C-13.359,146.783 -23.704,143.118 -31.034,135.785C-38.367,128.455 -42.032,118.111 -42.032,104.752L-42.032,52.485L-62.503,52.485L-62.503,27.004L-60.325,27.004C-54.52,27.004 -50.018,25.48 -46.823,22.431C-43.631,19.382 -42.032,14.955 -42.032,9.146L-42.032,0L-13.502,0L-13.502,27.004L13.72,27.004L13.72,52.485L-13.502,52.485L-13.502,103.227C-13.502,107.147 -12.815,110.489 -11.434,113.245C-10.055,116.005 -7.877,118.111 -4.9,119.561C-1.926,121.013 1.885,121.739 6.533,121.739C7.547,121.739 8.745,121.667 10.126,121.521C11.505,121.378 12.849,121.231 14.156,121.085L14.156,145.476C12.121,145.765 9.8,146.055 7.187,146.347C4.573,146.637 2.178,146.783 0,146.783" style="fill:white;fill-rule:nonzero;"/>
 </g>
 <g transform="matrix(2,0,0,2,2598.561,1889.5054)">
 <path d="M0,123.699C-12.196,123.699 -22.867,120.943 -32.014,115.424C-41.16,109.907 -48.275,102.431 -53.356,92.992C-58.44,83.556 -60.979,73.103 -60.979,61.632C-60.979,49.729 -58.402,39.167 -53.247,29.945C-48.095,20.727 -41.051,13.431 -32.123,8.058C-23.193,2.689 -13.213,0 -2.178,0C7.112,0 15.278,1.525 22.322,4.574C29.363,7.623 35.352,11.835 40.289,17.205C45.223,22.578 49,28.713 51.614,35.607C54.227,42.505 55.534,49.947 55.534,57.929C55.534,59.965 55.425,62.068 55.207,64.245C54.989,66.423 54.588,68.312 54.009,69.907L-37.458,69.907L-37.458,48.13L37.894,48.13L24.391,58.365C25.698,51.689 25.371,45.734 23.411,40.507C21.451,35.281 18.256,31.143 13.829,28.094C9.398,25.045 4.063,23.52 -2.178,23.52C-8.133,23.52 -13.431,25.011 -18.076,27.985C-22.724,30.963 -26.243,35.318 -28.638,41.052C-31.034,46.789 -31.942,53.72 -31.36,61.85C-31.942,69.111 -30.962,75.536 -28.42,81.123C-25.882,86.714 -22.104,91.032 -17.096,94.081C-12.087,97.13 -6.315,98.655 0.218,98.655C6.751,98.655 12.305,97.276 16.878,94.516C21.451,91.761 25.044,88.058 27.658,83.41L50.743,94.735C48.418,100.397 44.788,105.406 39.854,109.761C34.916,114.117 29.074,117.53 22.322,119.997C15.571,122.464 8.129,123.699 0,123.699" style="fill:white;fill-rule:nonzero;"/>
 </g>
 <g transform="matrix(2,0,0,2,2866.8658,1889.5054)">
 <path d="M0,123.699C-11.76,123.699 -22.322,120.977 -31.687,115.532C-41.051,110.088 -48.422,102.683 -53.792,93.319C-59.165,83.954 -61.85,73.392 -61.85,61.632C-61.85,49.872 -59.165,39.347 -53.792,30.054C-48.422,20.764 -41.051,13.431 -31.687,8.058C-22.322,2.689 -11.76,0 0,0C8.418,0 16.258,1.491 23.52,4.465C30.778,7.442 37.056,11.509 42.358,16.66C47.656,21.816 51.467,27.951 53.792,35.063L28.747,45.952C26.569,40 22.901,35.209 17.749,31.578C12.593,27.951 6.676,26.134 0,26.134C-6.244,26.134 -11.797,27.658 -16.66,30.707C-21.526,33.756 -25.337,37.969 -28.094,43.339C-30.853,48.712 -32.231,54.881 -32.231,61.85C-32.231,68.819 -30.853,74.991 -28.094,80.361C-25.337,85.734 -21.526,89.943 -16.66,92.992C-11.797,96.041 -6.244,97.566 0,97.566C6.823,97.566 12.774,95.752 17.858,92.121C22.938,88.493 26.569,83.628 28.747,77.53L53.792,88.854C51.467,95.534 47.694,101.523 42.466,106.821C37.24,112.123 30.996,116.261 23.738,119.235C16.476,122.209 8.565,123.699 0,123.699" style="fill:white;fill-rule:nonzero;"/>
 </g>
 <g transform="matrix(2,0,0,2,3017.562,1801.9588)">
 <path d="M0,164.859L0,0L28.529,0L28.529,69.69L24.609,65.551C27.365,58.44 31.905,53.029 38.221,49.327C44.536,45.625 51.903,43.774 60.325,43.774C69.036,43.774 76.768,45.662 83.519,49.436C90.27,53.213 95.53,58.474 99.308,65.225C103.081,71.976 104.97,79.782 104.97,88.636L104.97,164.859L76.441,164.859L76.441,95.387C76.441,90.161 75.424,85.662 73.392,81.885C71.357,78.111 68.563,75.171 65.008,73.065C61.448,70.962 57.276,69.907 52.485,69.907C47.837,69.907 43.699,70.962 40.072,73.065C36.441,75.171 33.61,78.111 31.578,81.885C29.544,85.662 28.529,90.161 28.529,95.387L28.529,164.859L0,164.859Z" style="fill:white;fill-rule:nonzero;"/>
 </g>
 <g transform="matrix(2,0,0,2,1298.1524,1826.2916)">
 <path d="M0,173.708L0,51.613C0,46.092 -4.476,41.616 -9.997,41.616L-30,41.616C-73.181,41.616 -111.756,61.72 -136.857,93.057C-161.958,61.72 -200.533,41.616 -243.714,41.616L-263.717,41.616C-269.238,41.616 -273.714,46.092 -273.714,51.613L-273.714,173.708C-273.714,201.324 -251.327,223.711 -223.711,223.711C-218.19,223.711 -213.714,219.235 -213.714,213.714L-213.714,107.714C-188.819,118.309 -170.615,141.674 -167.374,169.537C-166.783,174.613 -162.549,178.473 -157.439,178.473L-116.276,178.473C-111.166,178.473 -106.931,174.613 -106.341,169.537C-103.1,141.674 -84.895,118.309 -60,107.714L-60,213.714C-60,219.235 -55.524,223.711 -50.003,223.711C-22.387,223.711 0,201.324 0,173.708M-9.997,9.997L-263.717,9.997C-269.238,9.997 -273.714,5.522 -273.714,0.001L-273.714,0C-273.714,-27.615 -251.327,-50.003 -223.711,-50.003L-50.003,-50.003C-22.387,-50.003 0,-27.615 0,0L0,0.001C0,5.522 -4.476,9.997 -9.997,9.997" style="fill:white;fill-rule:nonzero;"/>
 </g>
 <g transform="matrix(2,0,0,2,3243.0484,1736.009)">
 <path d="M0,28.391L0,4.574L-7.354,4.574L-7.354,0L12.462,0L12.462,4.574L5.221,4.574L5.221,28.391L0,28.391Z" style="fill:white;fill-rule:nonzero;"/>
 </g>
 <g transform="matrix(2,0,0,2,3274.2964,1736.009)">
 <path d="M0,28.391L0,0L4.954,0L15.587,14.443L13.224,14.443L23.627,0L28.581,0L28.581,28.391L23.36,28.391L23.36,5.907L25.381,6.403L14.596,20.769L13.986,20.769L3.468,6.403L5.183,5.907L5.183,28.391L0,28.391Z" style="fill:white;fill-rule:nonzero;"/>
 </g>
</svg>
